<?xml version="1.0" encoding="UTF-8" standalone="no"?><!DOCTYPE svg PUBLIC "-//W3C//DTD SVG 1.1//EN" "http://www.w3.org/Graphics/SVG/1.1/DTD/svg11.dtd"><svg width="100%" height="100%" viewBox="0 0 1360 360" version="1.1" xmlns="http://www.w3.org/2000/svg" xmlns:xlink="http://www.w3.org/1999/xlink" xml:space="preserve" xmlns:serif="http://www.serif.com/" style="fill-rule:evenodd;clip-rule:evenodd;"><rect id="Vertices" x="0" y="0" width="421.875" height="359.375" style="fill:none;"/><circle id="path4621" cx="189.063" cy="310.938" r="14.063" style="fill:#e0e0e0;stroke:#1368aa;stroke-width:4.63px;"/><circle id="path46211" serif:id="path4621" cx="376.562" cy="285.937" r="14.063" style="fill:#e0e0e0;stroke:#1368aa;stroke-width:4.63px;"/><circle id="path46212" serif:id="path4621" cx="367.187" cy="73.438" r="14.063" style="fill:#e0e0e0;stroke:#1368aa;stroke-width:4.63px;"/><circle id="path4621-5" cx="45.313" cy="220.312" r="14.062" style="fill:#e0e0e0;stroke:#1368aa;stroke-width:4.63px;"/><circle id="path4621-8" cx="239.063" cy="164.063" r="14.063" style="fill:#e0e0e0;stroke:#1368aa;stroke-width:4.63px;"/><circle id="path4621-6" cx="117.188" cy="60.938" r="14.063" style="fill:#e0e0e0;stroke:#1368aa;stroke-width:4.63px;"/><g transform="matrix(33.3333,0,0,33.3333,149.15,320.675)"></g><text x="31.25px" y="320.675px" style="font-family:'HelveticaNeue', 'Helvetica Neue';font-size:33.333px;fill:#777;">V<tspan x="49.783px 67.683px " y="320.675px 320.675px ">er</tspan>tices</text><rect id="Edges" x="468.75" y="0" width="421.875" height="359.375" style="fill:none;"/><path d="M584.375,59.375l125,103.125l-200,59.375l75,-162.5Z" style="fill:none;stroke:#1368aa;stroke-width:6.25px;stroke-linecap:round;stroke-linejoin:round;stroke-miterlimit:1.5;"/><path d="M656.25,312.5l53.125,-150l-200,59.375l146.875,90.625Z" style="fill:none;stroke:#1368aa;stroke-width:6.25px;stroke-linecap:round;stroke-linejoin:round;stroke-miterlimit:1.5;"/><path d="M656.25,312.5l53.125,-150l140.625,128.125l-193.75,21.875Z" style="fill:none;stroke:#1368aa;stroke-width:6.25px;stroke-linecap:round;stroke-linejoin:round;stroke-miterlimit:1.5;"/><path d="M840.625,71.875l-131.25,90.625l140.625,128.125l-9.375,-218.75Z" style="fill:none;stroke:#1368aa;stroke-width:6.25px;stroke-linecap:round;stroke-linejoin:round;stroke-miterlimit:1.5;"/><path d="M840.625,71.875l-131.25,90.625l-125,-103.125l256.25,12.5Z" style="fill:none;stroke:#1368aa;stroke-width:6.25px;stroke-linecap:round;stroke-linejoin:round;stroke-miterlimit:1.5;"/><circle id="path46213" serif:id="path4621" cx="657.813" cy="310.938" r="14.063" style="fill:#e0e0e0;stroke:#aaa;stroke-width:4.63px;"/><circle id="path46214" serif:id="path4621" cx="845.312" cy="285.937" r="14.063" style="fill:#e0e0e0;stroke:#aaa;stroke-width:4.63px;"/><circle id="path46215" serif:id="path4621" cx="835.938" cy="73.438" r="14.063" style="fill:#e0e0e0;stroke:#aaa;stroke-width:4.63px;"/><circle id="path4621-51" serif:id="path4621-5" cx="514.063" cy="220.312" r="14.062" style="fill:#e0e0e0;stroke:#aaa;stroke-width:4.63px;"/><circle id="path4621-81" serif:id="path4621-8" cx="707.813" cy="164.063" r="14.063" style="fill:#e0e0e0;stroke:#aaa;stroke-width:4.63px;"/><circle id="path4621-61" serif:id="path4621-6" cx="585.938" cy="60.938" r="14.063" style="fill:#e0e0e0;stroke:#aaa;stroke-width:4.63px;"/><g transform="matrix(33.3333,0,0,33.3333,606.858,320.675)"></g><text x="513.025px" y="320.675px" style="font-family:'HelveticaNeue', 'Helvetica Neue';font-size:33.333px;fill:#777;">Edges</text><rect id="Faces" x="937.5" y="0" width="421.875" height="359.375" style="fill:none;"/><path d="M1050,59.375l125,103.125l-200,59.375l75,-162.5Z" style="fill:#1368aa;stroke:#aaa;stroke-width:6.25px;stroke-linecap:round;stroke-linejoin:round;stroke-miterlimit:1.5;"/><path d="M1121.88,312.5l53.125,-150l-200,59.375l146.875,90.625Z" style="fill:#1368aa;stroke:#aaa;stroke-width:6.25px;stroke-linecap:round;stroke-linejoin:round;stroke-miterlimit:1.5;"/><path d="M1121.88,312.5l53.125,-150l140.625,128.125l-193.75,21.875Z" style="fill:#1368aa;stroke:#aaa;stroke-width:6.25px;stroke-linecap:round;stroke-linejoin:round;stroke-miterlimit:1.5;"/><path d="M1306.25,71.875l-131.25,90.625l140.625,128.125l-9.375,-218.75Z" style="fill:#1368aa;stroke:#aaa;stroke-width:6.25px;stroke-linecap:round;stroke-linejoin:round;stroke-miterlimit:1.5;"/><path d="M1306.25,71.875l-131.25,90.625l-125,-103.125l256.25,12.5Z" style="fill:#1368aa;stroke:#aaa;stroke-width:6.25px;stroke-linecap:round;stroke-linejoin:round;stroke-miterlimit:1.5;"/><circle id="path46216" serif:id="path4621" cx="1123.44" cy="310.938" r="14.063" style="fill:#e0e0e0;stroke:#aaa;stroke-width:4.63px;"/><circle id="path46217" serif:id="path4621" cx="1310.94" cy="285.937" r="14.063" style="fill:#e0e0e0;stroke:#aaa;stroke-width:4.63px;"/><circle id="path46218" serif:id="path4621" cx="1301.56" cy="73.438" r="14.063" style="fill:#e0e0e0;stroke:#aaa;stroke-width:4.63px;"/><circle id="path4621-52" serif:id="path4621-5" cx="979.688" cy="220.312" r="14.063" style="fill:#e0e0e0;stroke:#aaa;stroke-width:4.63px;"/><circle id="path4621-82" serif:id="path4621-8" cx="1173.44" cy="164.063" r="14.063" style="fill:#e0e0e0;stroke:#aaa;stroke-width:4.63px;"/><circle id="path4621-62" serif:id="path4621-6" cx="1051.56" cy="60.938" r="14.063" style="fill:#e0e0e0;stroke:#aaa;stroke-width:4.63px;"/><g transform="matrix(33.3333,0,0,33.3333,1071.28,320.675)"></g><text x="981.775px" y="320.675px" style="font-family:'HelveticaNeue', 'Helvetica Neue';font-size:33.333px;fill:#777;">Faces</text></svg>