<?xml version="1.0" encoding="UTF-8" standalone="no"?>
<svg
   xmlns:dc="http://purl.org/dc/elements/1.1/"
   xmlns:cc="http://creativecommons.org/ns#"
   xmlns:rdf="http://www.w3.org/1999/02/22-rdf-syntax-ns#"
   xmlns:svg="http://www.w3.org/2000/svg"
   xmlns="http://www.w3.org/2000/svg"
   xmlns:sodipodi="http://sodipodi.sourceforge.net/DTD/sodipodi-0.dtd"
   xmlns:inkscape="http://www.inkscape.org/namespaces/inkscape"
   width="45"
   height="45"
   viewBox="0 0 250 250"
   fill="#fff"
   style="position: absolute; top: 0; right: 0"
   id="svg3355"
   version="1.1"
   inkscape:version="0.91 r13725"
   sodipodi:docname="gh-corner.svg"
   inkscape:export-filename="gh-corner.png"
   inkscape:export-xdpi="216.03999"
   inkscape:export-ydpi="216.03999">
  <metadata
     id="metadata3367">
    <rdf:RDF>
      <cc:Work
         rdf:about="">
        <dc:format>image/svg+xml</dc:format>
        <dc:type
           rdf:resource="http://purl.org/dc/dcmitype/StillImage" />
        <dc:title></dc:title>
      </cc:Work>
    </rdf:RDF>
  </metadata>
  <defs
     id="defs3365" />
  <sodipodi:namedview
     pagecolor="#ffffff"
     bordercolor="#666666"
     borderopacity="1"
     objecttolerance="10"
     gridtolerance="10"
     guidetolerance="10"
     inkscape:pageopacity="0"
     inkscape:pageshadow="2"
     inkscape:window-width="3200"
     inkscape:window-height="1770"
     id="namedview3363"
     showgrid="false"
     inkscape:zoom="35.844444"
     inkscape:cx="22.5"
     inkscape:cy="22.5"
     inkscape:window-x="0"
     inkscape:window-y="30"
     inkscape:window-maximized="1"
     inkscape:current-layer="svg3355" />
  <path
     d="M0 0l115 115h15l12 27 108 108V0z"
     fill="#09a8ff"
     id="path3357" />
  <path
     class="octo-arm"
     d="M128 109c-15-9-9-19-9-19 3-7 2-11 2-11-1-7 3-2 3-2 4 5 2 11 2 11-3 10 5 15 9 16"
     style="-webkit-transform-origin: 130px 106px; transform-origin: 130px 106px"
     id="path3359" />
  <path
     class="octo-body"
     d="M115 115s4 2 5 0l14-14c3-2 6-3 8-3-8-11-15-24 2-41 5-5 10-7 16-7 1-2 3-7 12-11 0 0 5 3 7 16 4 2 8 5 12 9s7 8 9 12c14 3 17 7 17 7-4 8-9 11-11 11 0 6-2 11-7 16-16 16-30 10-41 2 0 3-1 7-5 11l-12 11c-1 1 1 5 1 5z"
     id="path3361" />
</svg>
