<?xml version="1.0" encoding="UTF-8" standalone="no"?><!DOCTYPE svg PUBLIC "-//W3C//DTD SVG 1.1//EN" "http://www.w3.org/Graphics/SVG/1.1/DTD/svg11.dtd"><svg width="100%" height="100%" viewBox="0 0 905 532" version="1.1" xmlns="http://www.w3.org/2000/svg" xmlns:xlink="http://www.w3.org/1999/xlink" xml:space="preserve" xmlns:serif="http://www.serif.com/" style="fill-rule:evenodd;clip-rule:evenodd;stroke-linejoin:round;stroke-miterlimit:2;"><g><path id="path4919" d="M291.139,514.952l-268.372,0c0,0 134.186,-232.416 134.186,-232.416c0,-0 134.186,232.416 134.186,232.416Z" style="fill:#06b;fill-rule:nonzero;"/><path id="path49191" serif:id="path4919" d="M585.463,514.952l-266.957,0l133.479,-232.354l133.478,232.354Z" style="fill:#06b;fill-rule:nonzero;"/><path id="path49192" serif:id="path4919" d="M170.578,274.164l266.957,0l-133.479,232.354l-133.478,-232.354Z" style="fill:#06b;fill-rule:nonzero;"/><path id="path49193" serif:id="path4919" d="M170.578,257.546l133.478,-232.354l133.479,232.354l-266.957,-0Z" style="fill:#06b;fill-rule:nonzero;"/><path id="path4341-2-7-3-1-5" d="M463.585,269.445l136.594,-79.437l136.439,79.162c0,-0 -136.73,237.318 -136.73,237.318l-136.303,-237.043Z" style="fill:#06b;fill-rule:nonzero;"/><path id="path4341-2-7-3-1-51" serif:id="path4341-2-7-3-1-5" d="M591.841,16.675l0,158.908l-136.368,79.492c0,-0 -136.979,-238.116 -136.979,-238.116l273.347,-0.284Z" style="fill:#06b;fill-rule:nonzero;"/><path id="path4341-2-7-3-1-52" serif:id="path4341-2-7-3-1-5" d="M608.516,16.73l273.348,0.284c-0,-0 -136.98,238.115 -136.98,238.115l-136.368,-79.492l0,-158.907Z" style="fill:#06b;fill-rule:nonzero;"/></g></svg>