<?xml version="1.0" standalone="no"?>
<!DOCTYPE svg PUBLIC "-//W3C//DTD SVG 20010904//EN"
 "http://www.w3.org/TR/2001/REC-SVG-20010904/DTD/svg10.dtd">
<svg version="1.0" xmlns="http://www.w3.org/2000/svg"
 width="905.000000pt" height="905.000000pt" viewBox="0 0 905.000000 905.000000"
 preserveAspectRatio="xMidYMid meet">
<metadata>
Created by potrace 1.14, written by Peter Selinger 2001-2017
</metadata>
<g transform="translate(0.000000,905.000000) scale(0.100000,-0.100000)"
fill="#000000" stroke="none">
<path d="M3633 7022 c-244 -1 -443 -4 -443 -6 0 -3 59 -107 131 -233 73 -125
140 -241 149 -258 18 -32 126 -220 343 -596 75 -130 146 -254 157 -275 26 -46
208 -360 225 -389 7 -11 13 -24 15 -30 1 -5 10 -21 19 -35 10 -14 42 -68 72
-120 30 -52 59 -103 64 -112 6 -9 50 -87 99 -172 88 -153 89 -154 115 -143 14
6 28 14 31 18 3 3 30 19 60 36 30 17 133 76 228 132 95 55 177 101 182 101 4
0 10 3 12 8 3 6 59 40 202 122 17 10 77 45 134 79 57 33 106 61 108 61 2 0 21
11 42 24 20 13 56 35 78 48 23 13 91 52 151 87 l110 63 0 163 c0 90 4 168 7
174 4 6 4 11 -1 11 -9 0 -9 311 0 327 4 6 4 13 0 16 -8 9 -7 113 2 126 3 6 3
11 -2 11 -9 0 -8 281 1 305 3 8 2 15 -2 15 -4 0 -7 100 -7 222 l0 222 -920 0
c-506 1 -1119 0 -1362 -2z"/>
<path d="M6120 7020 l-35 -5 0 -790 0 -790 70 -43 c39 -23 77 -46 85 -49 14
-6 129 -73 160 -93 8 -6 22 -13 30 -17 8 -4 56 -31 105 -61 50 -30 110 -66
135 -80 25 -13 78 -44 117 -68 40 -24 77 -44 83 -44 5 0 10 -4 10 -10 0 -5 5
-10 10 -10 6 0 43 -20 83 -43 39 -24 99 -59 132 -77 33 -19 62 -37 63 -42 2
-4 8 -8 14 -8 6 0 36 -15 67 -34 31 -19 72 -43 91 -54 19 -10 52 -29 72 -41
l36 -22 43 73 c23 40 58 100 78 133 20 33 36 62 36 65 0 3 8 16 17 30 13 20
147 253 236 410 11 19 43 76 72 125 29 50 58 99 64 110 40 70 139 243 147 255
27 44 155 270 168 298 8 17 19 32 23 32 4 0 8 4 8 10 0 5 13 31 29 58 15 26
39 68 53 93 14 24 100 174 192 333 91 158 166 290 166 293 0 2 7 11 15 19 8 9
15 22 15 30 0 12 -92 14 -642 14 -354 1 -951 2 -1328 3 -377 1 -701 0 -720 -3z"/>
<path d="M3015 6893 c-11 -21 -22 -40 -26 -43 -3 -3 -8 -12 -12 -20 -3 -8 -20
-37 -37 -65 -16 -27 -33 -56 -37 -64 -3 -8 -47 -85 -96 -170 -50 -86 -101
-176 -115 -201 -13 -25 -28 -49 -32 -55 -5 -5 -23 -37 -40 -70 -18 -33 -38
-67 -44 -75 -7 -8 -18 -28 -26 -45 -8 -16 -17 -32 -20 -35 -3 -3 -10 -14 -16
-25 -46 -84 -100 -180 -144 -255 -5 -8 -40 -69 -78 -135 -38 -66 -108 -190
-157 -275 -49 -85 -94 -158 -100 -162 -5 -4 -7 -8 -3 -8 4 0 -7 -24 -26 -52
-18 -29 -36 -63 -40 -75 -4 -13 -11 -23 -15 -23 -4 0 -13 -16 -21 -35 -8 -19
-17 -35 -22 -35 -4 0 -8 -4 -8 -10 0 -5 -20 -44 -45 -86 -25 -41 -45 -78 -45
-81 0 -3 -8 -17 -19 -31 -18 -26 -81 -138 -81 -144 0 -2 599 -3 1330 -3 732 0
1330 1 1330 2 0 5 -72 134 -116 208 -13 22 -32 56 -42 75 -10 19 -46 82 -80
138 -34 57 -62 105 -62 107 0 4 -152 269 -180 315 -5 8 -26 44 -46 80 -21 36
-114 198 -207 360 -93 162 -178 311 -189 330 -10 19 -23 42 -28 50 -5 8 -24
40 -41 70 -18 30 -66 114 -107 185 -42 72 -80 139 -86 150 -47 86 -141 245
-146 245 -3 0 -14 -17 -25 -37z"/>
<path d="M5978 5278 c-16 -5 -28 -14 -28 -19 0 -5 -4 -9 -9 -9 -5 0 -82 -43
-172 -95 -89 -52 -164 -95 -166 -95 -2 0 -20 -11 -41 -23 -20 -13 -50 -32 -67
-43 -16 -10 -32 -19 -35 -19 -3 0 -16 -8 -30 -17 -64 -41 -162 -97 -180 -103
-11 -3 -20 -11 -20 -16 0 -6 -4 -8 -9 -4 -5 3 -12 1 -15 -4 -3 -5 -32 -24 -64
-42 -82 -46 -107 -60 -207 -119 -49 -29 -133 -77 -185 -107 -52 -31 -99 -59
-104 -63 -5 -5 25 -66 66 -137 41 -70 77 -135 81 -143 4 -8 17 -31 28 -50 25
-40 196 -337 228 -392 11 -21 29 -53 40 -70 152 -264 241 -422 241 -429 0 -5
4 -9 9 -9 5 0 11 -8 15 -17 3 -10 14 -31 23 -48 24 -39 82 -140 108 -186 29
-52 185 -322 195 -339 5 -8 42 -71 81 -140 39 -69 83 -146 98 -171 14 -25 51
-89 81 -142 30 -52 57 -94 61 -91 4 2 21 28 37 57 16 28 87 150 156 270 69
120 126 223 126 228 0 5 4 9 9 9 5 0 11 6 13 13 2 10 108 198 138 247 22 34
129 221 178 310 13 25 31 53 40 63 8 9 12 17 9 17 -4 0 8 24 26 53 18 28 78
131 132 227 55 96 102 177 106 180 3 3 12 20 20 38 8 17 17 32 20 32 4 0 9 8
12 18 3 9 22 44 41 77 20 33 54 94 78 135 23 41 44 77 47 80 3 3 14 21 24 40
31 59 52 95 57 100 3 3 13 21 24 40 10 19 29 54 43 78 13 23 22 46 19 51 -3 5
-38 27 -78 50 -40 23 -80 46 -88 51 -96 56 -269 157 -285 166 -11 6 -76 44
-145 84 -69 40 -138 81 -155 90 -16 10 -70 41 -120 70 -129 75 -154 89 -215
123 -30 17 -57 33 -60 37 -3 4 -18 13 -35 22 -16 8 -46 24 -65 35 -19 11 -51
29 -70 41 -28 15 -41 18 -62 10z"/>
<path d="M1710 4444 c0 -1 15 -29 34 -61 18 -32 45 -78 58 -103 14 -25 49 -85
78 -135 29 -49 63 -110 77 -135 14 -25 37 -64 50 -88 13 -24 40 -69 59 -100
18 -31 34 -62 34 -69 0 -6 4 -13 8 -15 7 -3 116 -186 150 -253 9 -16 18 -32
21 -35 4 -3 11 -14 16 -25 8 -17 74 -133 199 -348 10 -18 47 -84 83 -147 36
-63 85 -146 107 -185 23 -38 48 -83 56 -100 8 -16 18 -32 21 -35 3 -3 19 -30
36 -60 17 -30 62 -111 102 -178 39 -68 71 -128 71 -133 0 -5 3 -9 8 -9 4 0 16
-18 26 -40 30 -62 40 -66 62 -20 10 22 22 40 27 40 4 0 7 6 7 14 0 8 7 22 16
30 8 9 13 16 9 16 -3 0 2 12 13 28 10 15 39 63 64 107 25 44 55 96 66 115 10
19 43 76 72 125 29 50 68 119 88 155 19 36 38 67 41 70 4 3 12 16 18 30 7 14
31 57 53 95 83 145 122 211 147 255 14 25 32 56 41 70 9 14 17 27 17 30 0 3 8
16 17 30 9 14 31 52 49 85 39 70 156 273 170 295 17 28 301 525 331 580 17 30
37 64 44 75 8 11 14 22 14 26 0 4 -598 7 -1330 7 -731 0 -1330 -2 -1330 -4z"/>
<path d="M1549 4333 c-8 -15 -40 -72 -71 -126 -32 -54 -58 -101 -58 -104 0 -3
-13 -24 -28 -47 -16 -23 -35 -56 -43 -74 -7 -18 -17 -32 -20 -32 -4 0 -9 -8
-13 -17 -3 -10 -10 -25 -15 -33 -6 -8 -68 -116 -139 -240 -178 -309 -173 -300
-197 -345 -12 -22 -48 -82 -79 -134 -31 -51 -56 -95 -56 -96 0 -1 -85 -149
-190 -329 -104 -180 -192 -336 -195 -347 -4 -10 -11 -19 -16 -19 -5 0 -9 -4
-9 -9 0 -5 -26 -54 -58 -108 -32 -54 -75 -128 -95 -165 l-38 -68 1342 0 c1247
0 1340 1 1328 17 -8 9 -13 18 -11 20 2 3 -2 11 -40 73 -8 14 -16 30 -18 35 -1
6 -10 21 -20 35 -10 14 -27 42 -39 63 -52 92 -68 120 -147 257 -47 80 -89 152
-95 160 -5 8 -17 32 -26 53 -9 20 -20 37 -25 37 -4 0 -8 4 -8 9 0 5 -27 55
-60 110 -33 56 -60 106 -60 111 0 6 -4 10 -10 10 -5 0 -10 4 -10 9 0 9 -48 97
-86 158 -8 13 -13 25 -12 27 2 2 -4 12 -13 22 -9 11 -29 42 -44 69 -56 100
-79 141 -131 228 -30 49 -54 91 -54 93 0 2 -26 48 -58 101 -32 54 -61 105 -65
113 -4 8 -13 24 -20 35 -7 11 -36 63 -66 115 -30 52 -61 103 -69 113 -8 9 -11
17 -7 17 4 0 1 8 -7 18 -9 9 -27 37 -40 62 -89 161 -89 161 -109 123z"/>
<path d="M4513 4348 c-9 -12 -58 -95 -113 -193 -13 -22 -31 -53 -41 -70 -10
-16 -25 -43 -34 -60 -8 -16 -24 -43 -35 -60 -10 -16 -26 -43 -34 -60 -18 -36
-59 -108 -66 -115 -3 -3 -10 -14 -16 -25 -27 -49 -64 -114 -91 -161 -17 -28
-34 -61 -38 -72 -3 -12 -11 -22 -16 -22 -5 0 -9 -4 -9 -8 0 -8 -151 -276 -167
-297 -4 -6 -23 -40 -42 -75 -19 -36 -37 -67 -40 -70 -3 -3 -13 -18 -21 -35 -8
-16 -17 -32 -20 -35 -3 -3 -10 -14 -16 -25 -26 -48 -68 -122 -171 -300 -60
-104 -112 -197 -116 -205 -4 -8 -16 -28 -26 -45 -11 -16 -28 -46 -38 -65 -31
-58 -115 -202 -145 -249 -15 -25 -28 -48 -28 -53 0 -4 599 -8 1330 -8 732 0
1330 2 1330 4 0 3 -13 28 -30 56 -16 28 -30 52 -30 54 0 2 -18 34 -40 70 -22
36 -40 70 -40 76 0 5 -4 10 -10 10 -5 0 -10 4 -10 8 0 5 -32 64 -71 133 -40
68 -83 144 -97 169 -13 25 -28 50 -32 55 -4 6 -19 31 -34 58 -14 26 -38 68
-52 95 -15 26 -46 80 -70 119 -24 40 -44 75 -44 79 0 3 -8 18 -19 32 -10 15
-29 47 -43 72 -14 25 -35 61 -46 80 -12 19 -26 44 -31 56 -5 12 -26 46 -45 77
-20 31 -36 59 -36 62 0 3 -10 22 -23 43 -13 20 -39 64 -57 97 -42 75 -88 155
-100 175 -33 52 -180 313 -180 320 0 4 -3 10 -7 12 -8 3 -46 69 -68 115 -5 13
-13 23 -17 23 -5 0 -8 4 -8 9 0 5 -20 43 -44 85 -32 57 -46 73 -53 64z"/>
</g>
</svg>
